<svg xmlns="http://www.w3.org/2000/svg" width="1200" height="630" viewBox="0 0 1200 630" fill="none">
  <rect width="1200" height="630" fill="#000000"/>
  <defs>
    <pattern id="grid" width="72" height="72" patternUnits="userSpaceOnUse">
      <path d="M 72 0 L 0 0 0 72" fill="none" stroke="rgba(255,255,255,0.04)" stroke-width="1"/>
    </pattern>
    <radialGradient id="glow" cx="50%" cy="0%" r="70%">
      <stop offset="0%" stop-color="rgba(253,218,36,0.12)"/>
      <stop offset="100%" stop-color="rgba(0,0,0,0)"/>
    </radialGradient>
  </defs>
  <rect width="1200" height="630" fill="url(#grid)"/>
  <rect width="1200" height="630" fill="url(#glow)"/>
  <g transform="translate(120,220)">
    <rect x="0" y="0" width="72" height="72" rx="20" stroke="#fdda24" stroke-width="2" fill="rgba(253,218,36,0.12)"/>
    <path d="M18 54V18h16c9 0 15 6 15 14 0 6-4 11-9 13l8 9h-9l-7-16H27v16H18zm8-23h7c4 0 7-2 7-6s-3-6-7-6h-7v12z" fill="#ffffff"/>
    <circle cx="56" cy="24" r="4" fill="#fdda24"/>
  </g>
  <text x="120" y="360" fill="#ffffff" font-family="system-ui,sans-serif" font-size="64" font-weight="600">Privora</text>
  <text x="120" y="420" fill="#b8b8b8" font-family="system-ui,sans-serif" font-size="28">Anonymous voting on Stellar, powered by ZK proofs</text>
</svg>
